<svg class="diagram-root" style="background: #f5f6f6" xmlns="http://www.w3.org/2000/svg" xmlns:xlink="http://www.w3.org/1999/xlink"><style>.diagram-root { font-family: "Helvetica Neue", sans-serif; font-size: 12px; } .t { overflow: visible; } .t-bg { y: 40; fill: #fff;   } .th { fill: #005aa0;   } .tht { fill: #fff; font-size: 14px;  } .tf { fill: #323c46; overflow: visible; } .tf.pk { fill: #005aa0; font-weight: bold; } .tf.fk { font-weight: bold; } .ty { fill: #adb1b5; font-weight: normal; text-anchor: end; } .r { fill: transparent; stroke: #c3c3c3; stroke-width: 1; } .l { stroke: 1; } .i { fill: #c2c7ce; stroke: #c2c7ce; } .i.ix { fill: #afb3b6; stroke: #000; } .fa { fill: transparent; overflow: visible; } .fa .bg.hover { fill: #f7f7f7; } .c { cy: 12; r: 4; stroke: #d2d2dc; fill: #d2d2dc; } .hr { fill: transparent; stroke: #323c46; stroke-opacity: 0.035; stroke-width: 13; } .dc { stroke: #fa5a3c; fill: #fa5a3c; } .x { stroke: white; stroke-width: 1; } .hl .th { fill: #1b9bff; } .hl .tht {  } .fhl .bg { fill: #e7f4ff; } .fhls .bg {  } .r.hl { stroke: #1b9bff; } .dim { opacity: 0.25; }</style><g class="drawing-wrapper" transform="translate(2, 18) scale(1,1)"><g class="rs"><path d="M 380 247 m -1, 0 a 1,1 0 1,0 2,0 a 1,1 0 1,0 -2,0 M 380 247 m -0.5, 0 a 0.5,0.5 0 1,0 1,0 a 0.5,0.5 0 1,0 -1,0  M380 247 L380 247 368 247 M374 253 L374 253 374 241 M368 247 Q 331.79 247, 295.58 167 T 223.15 87 M 211.15 87 m -1, 0 a 1,1 0 1,0 2,0 a 1,1 0 1,0 -2,0 M 211.15 87 m -0.5, 0 a 0.5,0.5 0 1,0 1,0 a 0.5,0.5 0 1,0 -1,0  M211.15 87 L211.15 87 223.15 87 M217.15 93 L217.15 93 217.15 81" id="h1139284389" class="r"></path><path d="M 548.5 272 m -1, 0 a 1,1 0 1,0 2,0 a 1,1 0 1,0 -2,0 M 548.5 272 m -0.5, 0 a 0.5,0.5 0 1,0 1,0 a 0.5,0.5 0 1,0 -1,0  M548.5 272 L548.5 272 560.5 272 M554.5 278 L554.5 278 554.5 266 M560.5 272 Q 590.13 272, 619.75 186 T 679 100 M 691 100 m -1, 0 a 1,1 0 1,0 2,0 a 1,1 0 1,0 -2,0 M 691 100 m -0.5, 0 a 0.5,0.5 0 1,0 1,0 a 0.5,0.5 0 1,0 -1,0  M691 100 L691 100 679 100 M685 106 L685 106 685 94" id="h1607168654" class="r"></path><path d="M 524.5 81 m -1, 0 a 1,1 0 1,0 2,0 a 1,1 0 1,0 -2,0 M 524.5 81 m -0.5, 0 a 0.5,0.5 0 1,0 1,0 a 0.5,0.5 0 1,0 -1,0  M524.5 81 L524.5 81 536.5 81 M530.5 87 L530.5 87 530.5 75 M536.5 81 Q 572.13 81, 607.75 90.5 T 679 100 M 691 100 m -1, 0 a 1,1 0 1,0 2,0 a 1,1 0 1,0 -2,0 M 691 100 m -0.5, 0 a 0.5,0.5 0 1,0 1,0 a 0.5,0.5 0 1,0 -1,0  M691 100 L691 100 679 100 M685 106 L685 106 685 94" id="h1397587031" class="r"></path><path d="M 356 106 m -1, 0 a 1,1 0 1,0 2,0 a 1,1 0 1,0 -2,0 M 356 106 m -0.5, 0 a 0.5,0.5 0 1,0 1,0 a 0.5,0.5 0 1,0 -1,0  M356 106 L356 106 344 106 M350 112 L350 112 350 100 M344 106 Q 313.79 106, 283.58 96.5 T 223.15 87 M 211.15 87 m -1, 0 a 1,1 0 1,0 2,0 a 1,1 0 1,0 -2,0 M 211.15 87 m -0.5, 0 a 0.5,0.5 0 1,0 1,0 a 0.5,0.5 0 1,0 -1,0  M211.15 87 L211.15 87 223.15 87 M217.15 93 L217.15 93 217.15 81" id="h2286254435" class="r"></path><path d="M 404 477 m -1, 0 a 1,1 0 1,0 2,0 a 1,1 0 1,0 -2,0 M 404 477 m -0.5, 0 a 0.5,0.5 0 1,0 1,0 a 0.5,0.5 0 1,0 -1,0  M404 477 L404 477 392 477 M398 483 L398 483 398 471 M392 477 Q 349.79 477, 307.58 282 T 223.15 87 M 211.15 87 m -1, 0 a 1,1 0 1,0 2,0 a 1,1 0 1,0 -2,0 M 211.15 87 m -0.5, 0 a 0.5,0.5 0 1,0 1,0 a 0.5,0.5 0 1,0 -1,0  M211.15 87 L211.15 87 223.15 87 M217.15 93 L217.15 93 217.15 81" id="h3177548053" class="r"></path><path d="M 212.8 463 m -1, 0 a 1,1 0 1,0 2,0 a 1,1 0 1,0 -2,0 M 212.8 463 m -0.5, 0 a 0.5,0.5 0 1,0 1,0 a 0.5,0.5 0 1,0 -1,0  M212.8 463 L212.8 463 224.8 463 M218.8 469 L218.8 469 218.8 457 M224.8 463 C 274.8 463, 275.78999999999996 87, 223.15 87 M 211.15 87 m -1, 0 a 1,1 0 1,0 2,0 a 1,1 0 1,0 -2,0 M 211.15 87 m -0.5, 0 a 0.5,0.5 0 1,0 1,0 a 0.5,0.5 0 1,0 -1,0  M211.15 87 L211.15 87 223.15 87 M217.15 93 L217.15 93 217.15 81" id="h3000826536" class="r"></path></g><g class="hrs"></g><g class="ts"><svg width="181.15" height="200" x="30" y="30" id="h1639608377" class="t"><rect height="40" width="181.15" class="th"></rect><text x="13" y="25" class="tht">employees</text><rect height="160" width="181.15" class="t-bg"></rect><text x="13" y="61" class="tf pk">emp_no<tspan x="168.15" class="ty">INT</tspan></text><path d="M7,14A2,2 0 0,1 5,12A2,2 0 0,1 7,10A2,2 0 0,1 9,12A2,2 0 0,1 7,14M12.65,10C11.83,7.67 9.61,6 7, 6A6, 6 0 0, 0 1, 12A6, 6 0 0, 0 7, 18C9.61, 18 11.83, 16.33 12.65, 14H17V18H21V14H23V10H12.65Z" class="i pk" transform="translate(128.819921875, 48) scale(0.65)"></path><text x="13" y="86" class="tf">birth_date<tspan x="168.15" class="ty">Date</tspan></text><text x="13" y="111" class="tf">first_name<tspan x="168.15" class="ty">VARCHAR(20)</tspan></text><text x="13" y="136" class="tf">last_name<tspan x="168.15" class="ty">VARCHAR(20)</tspan></text><text x="13" y="161" class="tf">gender<tspan x="168.15" class="ty">VARCHAR(7)</tspan></text><text x="13" y="186" class="tf">hire_date<tspan x="168.15" class="ty">Date</tspan></text></svg><svg width="168.5" height="150" x="380" y="190" id="h1090417462" class="t"><rect height="40" width="168.5" class="th"></rect><text x="13" y="25" class="tht">dept_emp</text><rect height="110" width="168.5" class="t-bg"></rect><text x="13" y="61" class="tf fk">emp_no<tspan x="155.5" class="ty">INT</tspan></text><text x="13" y="86" class="tf fk">dept_no<tspan x="155.5" class="ty">VARCHAR(20)</tspan></text><text x="13" y="111" class="tf">from_date<tspan x="155.5" class="ty">Date</tspan></text><text x="13" y="136" class="tf">to_date<tspan x="155.5" class="ty">Date</tspan></text></svg><svg width="168.5" height="150" x="356" y="24" id="h1676682957" class="t"><rect height="40" width="168.5" class="th"></rect><text x="13" y="25" class="tht">dept_manager</text><rect height="110" width="168.5" class="t-bg"></rect><text x="13" y="61" class="tf fk">dept_no<tspan x="155.5" class="ty">VARCHAR(20)</tspan></text><text x="13" y="86" class="tf fk">emp_no<tspan x="155.5" class="ty">INT</tspan></text><text x="13" y="111" class="tf">from_date<tspan x="155.5" class="ty">Date</tspan></text><text x="13" y="136" class="tf">to_date<tspan x="155.5" class="ty">Date</tspan></text></svg><svg width="125.38" height="150" x="404" y="420" id="h2472833127" class="t"><rect height="40" width="125.38" class="th"></rect><text x="13" y="25" class="tht">salaries</text><rect height="110" width="125.38" class="t-bg"></rect><text x="13" y="61" class="tf fk">emp_no</text><text x="13" y="86" class="tf">salary<tspan x="112.38" class="ty">INT</tspan></text><text x="13" y="111" class="tf">from_date<tspan x="112.38" class="ty">Date</tspan></text><text x="13" y="136" class="tf">to_date<tspan x="112.38" class="ty">Date</tspan></text></svg><svg width="143.8" height="150" x="69" y="406" id="h311790747" class="t"><rect height="40" width="143.8" class="th"></rect><text x="13" y="25" class="tht">titles</text><rect height="110" width="143.8" class="t-bg"></rect><text x="13" y="61" class="tf fk">emp_no<tspan x="130.8" class="ty">INT</tspan></text><text x="13" y="86" class="tf">title<tspan x="130.8" class="ty">VARCHAR(30)</tspan></text><text x="13" y="111" class="tf">from_date<tspan x="130.8" class="ty">Date</tspan></text><text x="13" y="136" class="tf">to_date<tspan x="130.8" class="ty">Date</tspan></text></svg><svg width="188.5" height="100" x="691" y="43" id="h475896179" class="t"><rect height="40" width="188.5" class="th"></rect><text x="13" y="25" class="tht">departments</text><rect height="60" width="188.5" class="t-bg"></rect><text x="13" y="61" class="tf pk">dept_no<tspan x="175.5" class="ty">VARCHAR(20)</tspan></text><path d="M7,14A2,2 0 0,1 5,12A2,2 0 0,1 7,10A2,2 0 0,1 9,12A2,2 0 0,1 7,14M12.65,10C11.83,7.67 9.61,6 7, 6A6, 6 0 0, 0 1, 12A6, 6 0 0, 0 7, 18C9.61, 18 11.83, 16.33 12.65, 14H17V18H21V14H23V10H12.65Z" class="i pk" transform="translate(76.375, 48) scale(0.65)"></path><text x="13" y="86" class="tf">dept_name<tspan x="175.5" class="ty">VARCHAR(30)</tspan></text></svg></g></g><text class="qdbd-link" x="10" y="20">www.quickdatabasediagrams.com</text></svg>